<!-- Tigerstripes -->
<svg width="220" height="120" viewBox="0 0 160 100" xmlns="http://www.w3.org/2000/svg" class="fish tigerstripes">
    <!-- Body -->
    <path d="M20,50 Q60,10 140,30 Q180,50 140,70 Q60,90 20,50 Z" fill="var(--body-color, #ffdd00)" />

    <!-- Tail -->
    <polygon points="20,50 5,35 5,65" fill="var(--tail-color, #ffaa00)" />

    <!-- Top Fin -->
    <path d="M60,30 Q70,10 80,30 L60,30 Z" fill="var(--top-fin-color, #ffcc00)"></path>

    <!-- Bottom Fin -->
    <path d="M60,70 Q70,90 80,70 L60,70 Z" fill="var(--bottom-fin-color, #ffcc00)"></path>

    <!-- Zebra stripes (pattern) -->
    <path d="M40,35 Q43,50 40,65" stroke-width="4" stroke="var(--pattern-color, #000000)" />
    <path d="M55,30 Q58,50 55,70" stroke-width="4" stroke="var(--pattern-color, #000000)" />
    <path d="M70,35 Q73,50 70,65" stroke-width="4" stroke="var(--pattern-color, #000000)" />
    <path d="M85,37 Q88,50 85,63" stroke-width="4" stroke="var(--pattern-color, #000000)" />
    <path d="M100,38 Q103,50 100,62" stroke-width="4" stroke="var(--pattern-color, #000000)" />

    <!-- Side fin -->
    <polygon points="115,50 125,45 125,55" fill="var(--side-fin-color, #ffaa00)" fill-opacity="0.6" />

    <!-- Eye -->
    <circle cx="150" cy="42" r="6" fill="#ffffff" />
    <circle cx="150" cy="42" r="3" fill="#000000" />
    <!-- Eye highlight -->
    <circle cx="152" cy="41" r="1" fill="#ffffff" />
</svg>