<svg xmlns="http://www.w3.org/2000/svg" width="220" height="120" viewBox="0 0 220 120" class="shrimp mantisShrimp">
<g transform="matrix(0.2 0 0 0.2 0 4.1) translate(-167, -80)">

<!-- #region boder -->
<path d="M0 0 C3.4670745 1.60471813 7.19898719 0.29422766 10.765625 -0.66796875 C27.89064636 -5.15078978 43.00427714 -0.73366854 57.83984375 7.8515625 C67.50397931 14.24080827 75.14556253 25.97282277 78.83984375 36.8515625 C79.17435547 37.83576172 79.17435547 37.83576172 79.515625 38.83984375 C83.43834979 53.00968636 80.59476962 65.7874607 74.83984375 78.8515625 C73.87909292 80.54115879 72.89520875 82.2193914 71.83984375 83.8515625 C72.76821045 83.8201416 72.76821045 83.8201416 73.71533203 83.78808594 C104.39552908 82.90976176 134.80789615 86.74911119 164.83984375 92.8515625 C165.69900391 93.02155762 166.55816406 93.19155273 167.44335938 93.36669922 C198.41494482 99.54220765 236.62022366 109.70007086 260.83984375 130.8515625 C260.83984375 131.5115625 260.83984375 132.1715625 260.83984375 132.8515625 C261.33871094 132.59761719 261.83757813 132.34367188 262.3515625 132.08203125 C273.7181687 126.63340673 285.21949017 125.28862947 297.71484375 125.3515625 C298.72097717 125.35470459 298.72097717 125.35470459 299.74743652 125.35791016 C325.94062219 125.52520947 355.01569246 132.94438313 374.21484375 151.9140625 C375.08109375 152.8834375 375.94734375 153.8528125 376.83984375 154.8515625 C378.05671875 154.4184375 379.27359375 153.9853125 380.52734375 153.5390625 C382.29460951 152.96545228 384.06582149 152.40392287 385.83984375 151.8515625 C386.74863281 151.56539062 387.65742187 151.27921875 388.59375 150.984375 C402.37518914 147.21109962 417.97287482 147.61593642 431.83984375 150.8515625 C433.05414062 151.10808594 434.2684375 151.36460937 435.51953125 151.62890625 C450.13787441 154.86038645 463.29078846 159.92173657 475.10546875 169.2265625 C477.67399159 171.09932811 477.67399159 171.09932811 480.37109375 170.69921875 C481.18578125 170.41949219 482.00046875 170.13976562 482.83984375 169.8515625 C505.74440537 162.98730723 529.024597 167.99381815 549.90234375 178.9140625 C552.72613986 180.44698039 554.70705156 181.7087103 556.90234375 184.0703125 C557.54171875 184.658125 558.18109375 185.2459375 558.83984375 185.8515625 C562.8885395 185.27317739 566.54569324 184.25829552 570.4375 183.03515625 C578.12595939 180.89314939 585.44498611 180.52934568 593.40234375 180.4765625 C594.44261719 180.46286621 595.48289062 180.44916992 596.5546875 180.43505859 C604.03433909 180.47862709 610.67537958 181.76125216 617.83984375 183.8515625 C618.60111572 184.06377441 619.3623877 184.27598633 620.14672852 184.49462891 C621.71479006 184.93397772 623.27813284 185.39014791 624.83984375 185.8515625 C625.50628906 185.16191406 626.17273437 184.47226562 626.859375 183.76171875 C632.34409842 178.16960214 637.90727336 172.96990834 644.046875 168.0859375 C646.90826714 165.79682379 649.68224532 163.42306225 652.46484375 161.0390625 C677.10205416 140.52921982 709.78010639 118.76170539 741.83984375 112.8515625 C742.55011719 112.71492188 743.26039062 112.57828125 743.9921875 112.4375 C748.14352833 112.00722667 750.67327256 113.06114369 753.83984375 115.5390625 C768.353103 129.8251083 775.81865169 153.9905993 776.33984375 173.9140625 C776.37070068 174.64125488 776.40155762 175.36844727 776.43334961 176.11767578 C776.43376459 179.65577589 776.19815587 181.45488426 773.796875 184.11328125 C770.28971043 186.17495659 766.7405965 187.94570051 763.02734375 189.6015625 C761.98803711 190.07529297 761.98803711 190.07529297 760.92773438 190.55859375 C759.23463704 191.32924495 757.53762963 192.09129612 755.83984375 192.8515625 C756.46963135 192.87138184 757.09941895 192.89120117 757.74829102 192.91162109 C760.63335735 193.00755147 763.51776605 193.1169522 766.40234375 193.2265625 C767.88831055 193.27296875 767.88831055 193.27296875 769.40429688 193.3203125 C774.83631951 193.53687154 779.78402441 193.76111144 784.83984375 195.8515625 C796.13565684 208.38780366 793.47804659 232.43287989 792.83984375 247.8515625 C792.38777728 255.46363129 791.67262645 264.60252626 786.83984375 270.8515625 C782.44316049 273.3424591 777.46572962 273.5010431 772.52734375 273.9765625 C771.69138672 274.06292969 770.85542969 274.14929688 769.99414062 274.23828125 C767.94336745 274.44921792 765.89168472 274.65127896 763.83984375 274.8515625 C764.38398926 275.07295898 764.92813477 275.29435547 765.48876953 275.52246094 C767.98362693 276.54204757 770.47420744 277.57170995 772.96484375 278.6015625 C773.82078125 278.94960938 774.67671875 279.29765625 775.55859375 279.65625 C781.2862169 282.03541654 786.4002079 284.41192665 790.83984375 288.8515625 C793.54700432 309.4385743 785.48715492 334.2817739 773.90234375 351.1015625 C772.29967705 353.17783046 770.69531856 354.99608769 768.83984375 356.8515625 C766.5625 356.86328125 766.5625 356.86328125 763.90234375 356.5390625 C762.58943359 356.39017578 762.58943359 356.39017578 761.25 356.23828125 C758.83984375 355.8515625 758.83984375 355.8515625 755.83984375 354.8515625 C755.67355469 356.60533203 755.67355469 356.60533203 755.50390625 358.39453125 C753.55287433 373.84983115 743.4678855 390.08153334 731.46484375 399.7890625 C727.04613624 402.64028342 722.00318423 403.46101693 716.82373047 402.46313477 C714.80564974 401.8058038 712.90211894 401.03099905 710.96484375 400.1640625 C710.24796387 399.8551709 709.53108398 399.5462793 708.79248047 399.22802734 C695.33150784 393.16057881 682.85140992 384.64558965 671.83984375 374.8515625 C671.01613281 374.13613281 670.19242188 373.42070313 669.34375 372.68359375 C658.27238751 362.9249045 648.63534801 352.65816924 639.83984375 340.8515625 C639.19184814 339.9867627 639.19184814 339.9867627 638.53076172 339.10449219 C612.83984375 304.62278266 612.83984375 304.62278266 612.83984375 290.8515625 C612.30359375 290.9959375 611.76734375 291.1403125 611.21484375 291.2890625 C597.03060341 294.64848784 580.24470093 293.7779237 566.52734375 288.6015625 C565.64046875 288.3540625 564.75359375 288.1065625 563.83984375 287.8515625 C562.24927574 289.16550999 560.67546442 290.50449386 559.1875 291.93359375 C541.87906886 306.0740924 515.47136273 310.63269545 493.83984375 308.8515625 C490.78987931 308.22995721 487.98437826 307.47944567 485.06640625 306.41015625 C481.47417864 305.50894827 478.91554398 306.21020161 475.76953125 308.0859375 C475.09148438 308.58609375 474.4134375 309.08625 473.71484375 309.6015625 C468.72468023 313.08542034 463.43120833 315.48960288 457.83984375 317.8515625 C459.83202427 328.70113387 463.83174638 341.87744193 472.55224609 349.09716797 C478.64348197 352.94545726 485.17046711 355.79455613 491.81005859 358.55810547 C496.13381233 360.40397552 500.23453688 362.56828192 504.33984375 364.8515625 C504.99750732 365.18986084 505.6551709 365.52815918 506.33276367 365.87670898 C509.19792175 367.43856239 510.64864941 368.35801433 511.84765625 371.453125 C511.83984375 373.8515625 511.83984375 373.8515625 510.21484375 376.2265625 C507.83984375 377.8515625 507.83984375 377.8515625 505.56030273 377.63305664 C502.44282741 376.73751338 499.81365291 375.47425944 496.9375 373.97265625 C495.80610596 373.38564941 494.67471191 372.79864258 493.5090332 372.19384766 C489.2592348 369.95514113 485.01520772 367.70523838 480.77766418 365.44342041 C477.63261446 363.77137633 474.47253175 362.181584 471.23046875 360.70703125 C461.74833216 356.12123812 458.54187867 350.3871381 454.73095703 340.99462891 C453.52828986 338.10229673 452.16480629 335.29747618 450.80444336 332.47680664 C446.83984375 324.25560578 446.83984375 324.25560578 446.83984375 321.8515625 C445.57269531 322.12871094 444.30554688 322.40585937 443 322.69140625 C441.3008316 323.05752541 439.60160997 323.42339762 437.90234375 323.7890625 C437.07154297 323.97146484 436.24074219 324.15386719 435.38476562 324.34179688 C426.63040615 326.21529793 418.22421991 327.00979039 409.27734375 326.9140625 C408.45943359 326.90955078 407.64152344 326.90503906 406.79882812 326.90039062 C404.81246728 326.88877448 402.82614495 326.87084698 400.83984375 326.8515625 C401.29875 328.08390625 401.75765625 329.31625 402.23046875 330.5859375 C402.85036331 332.25777435 403.47014907 333.92965155 404.08984375 335.6015625 C404.39019531 336.40722656 404.69054687 337.21289062 405 338.04296875 C405.30292969 338.86152344 405.60585938 339.68007813 405.91796875 340.5234375 C406.2521582 341.38437012 406.58634766 342.24530273 406.93066406 343.13232422 C407.83984375 345.8515625 407.83984375 345.8515625 408.27246094 348.69970703 C409.60691321 355.6533288 412.57904227 358.87994851 418.20404053 362.81726074 C422.60959586 365.71574924 427.08211593 368.49032035 431.58984375 371.2265625 C434.35475298 372.92379066 437.11213501 374.63022167 439.85479736 376.3631897 C441.55500634 377.43584489 443.26865287 378.48755456 444.99627686 379.51547241 C447.12994706 380.85295484 449.03790721 382.09248004 450.83984375 383.8515625 C451.47360894 387.28661118 451.47049254 388.82260921 449.65234375 391.7890625 C447.83984375 392.8515625 447.83984375 392.8515625 445.75415039 392.75708008 C441.45056146 391.41989223 438.09399786 388.96211482 434.3984375 386.42578125 C433.59374527 385.88178177 432.78905304 385.33778229 431.9599762 384.77729797 C430.26210671 383.6269749 428.56692366 382.47267799 426.87426758 381.31469727 C424.28914322 379.54713033 421.69521069 377.79315108 419.09960938 376.04101562 C417.44867977 374.92006423 415.7982714 373.7983447 414.1484375 372.67578125 C412.98893837 371.89118782 412.98893837 371.89118782 411.80601501 371.09074402 C405.01543927 366.4314669 401.46894497 362.95199392 398.859375 354.9453125 C398.60105392 354.18359741 398.34273285 353.42188232 398.07658386 352.63708496 C397.25737935 350.21215389 396.45488248 347.78205334 395.65234375 345.3515625 C395.10196149 343.71709396 394.55053986 342.08297502 393.99804688 340.44921875 C389.94577896 328.40889893 389.94577896 328.40889893 389.42802429 325.68493652 C389.23392471 325.0799231 389.03982513 324.47490967 388.83984375 323.8515625 C386.85999894 323.12722903 384.85400937 322.47412278 382.83984375 321.8515625 C380.79628467 320.52245083 378.82258814 319.13524135 376.8671875 317.6796875 C374.82838933 316.60801073 374.82838933 316.60801073 372.5625 317.46484375 C369.81974579 318.86179891 367.08800776 320.27775954 364.36914062 321.72070312 C356.6195528 325.80061125 349.53712711 328.42187208 340.83984375 329.8515625 C341.2265625 331.06070312 341.61328125 332.26984375 342.01171875 333.515625 C342.53789589 335.16922773 343.06392725 336.82287686 343.58984375 338.4765625 C343.86497803 339.33652832 344.1401123 340.19649414 344.42358398 341.08251953 C345.68422141 345.05443129 346.91461653 349.01833164 347.953125 353.0546875 C348.26636719 354.26640625 348.57960938 355.478125 348.90234375 356.7265625 C349.16144531 357.79648437 349.42054688 358.86640625 349.6875 359.96875 C353.94675302 370.62410162 370.11652259 379.68266543 379.13964844 386.47265625 C379.83606445 386.99859375 380.53248047 387.52453125 381.25 388.06640625 C381.87011963 388.53167725 382.49023926 388.99694824 383.12915039 389.47631836 C387.75994584 393.19906286 387.75994584 393.19906286 388.21484375 396.9140625 C388.09109375 397.8834375 387.96734375 398.8528125 387.83984375 399.8515625 C384.83984375 401.8515625 384.83984375 401.8515625 382.5546875 401.78125 C378.92879264 400.53957665 376.31243292 398.38809578 373.40234375 395.9765625 C372.15906824 394.97239115 370.91557227 393.96849269 369.671875 392.96484375 C368.72175537 392.19068115 368.72175537 392.19068115 367.75244141 391.40087891 C365.31149241 389.42356689 362.84141716 387.48549656 360.36474609 385.55322266 C359.18216579 384.62765431 358.00407277 383.69632364 356.83056641 382.75927734 C354.2415597 380.69468221 351.67684875 378.74340694 348.9140625 376.91015625 C341.73551588 371.98620501 339.54687195 366.40838497 337.45361328 358.22802734 C336.74711703 355.49253233 335.98093434 352.77688231 335.2109375 350.05859375 C334.11463238 346.15450835 333.02926686 342.24811922 331.9765625 338.33203125 C331.75701904 337.51629639 331.53747559 336.70056152 331.3112793 335.86010742 C330.83984375 333.8515625 330.83984375 333.8515625 330.83984375 331.8515625 C329.97268738 332.09505936 329.97268738 332.09505936 329.0880127 332.34347534 C325.45193185 333.16523119 321.76841952 332.99353428 318.05859375 332.984375 C316.78284485 332.98581009 316.78284485 332.98581009 315.48132324 332.98727417 C313.68595302 332.98795364 311.89058032 332.9861156 310.09521484 332.98193359 C307.34987867 332.97658206 304.6047061 332.98188646 301.859375 332.98828125 C300.11328089 332.98762043 298.36718688 332.98633918 296.62109375 332.984375 C295.80120972 332.98639923 294.98132568 332.98842346 294.13659668 332.99050903 C290.53576299 332.97572209 287.30453004 332.8244438 283.83984375 331.8515625 C286.9757856 361.61040792 286.9757856 361.61040792 305.1484375 384.3125 C305.93331543 384.90321289 306.71819336 385.49392578 307.52685547 386.10253906 C311.13135259 388.82816893 314.46529119 391.85003246 317.83984375 394.8515625 C318.53988525 395.4602417 319.23992676 396.0689209 319.96118164 396.69604492 C323.36079197 399.69185488 324.71081527 401.06448878 325.46484375 405.6640625 C325.25859375 406.7159375 325.05234375 407.7678125 324.83984375 408.8515625 C321.83984375 410.8515625 321.83984375 410.8515625 319.38642883 410.64854431 C316.70646973 409.80982163 315.22686761 408.90171376 313.09448242 407.09985352 C312.39979355 406.5132193 311.70510468 405.92658508 310.98936462 405.32217407 C306.9374789 401.7511774 302.94707786 398.13004426 299.02734375 394.4140625 C298.20036987 393.63088654 297.373396 392.84771057 296.5213623 392.040802 C278.47226016 374.5114697 273.94512338 356.41756055 272.83984375 331.8515625 C272.83984375 330.8615625 272.83984375 329.8715625 272.83984375 328.8515625 C271.96714844 328.74585938 271.09445312 328.64015625 270.1953125 328.53125 C266.69682517 327.8225925 264.25447833 326.71583461 261.15234375 324.9765625 C260.22035156 324.46351563 259.28835938 323.95046875 258.328125 323.421875 C255.83984375 321.8515625 255.83984375 321.8515625 254.28125 320.109375 C252.89594189 318.60597193 252.89594189 318.60597193 250.75390625 318.9609375 C249.99851562 319.17234375 249.243125 319.38375 248.46484375 319.6015625 C247.71460938 319.80265625 246.964375 320.00375 246.19140625 320.2109375 C245.41539062 320.42234375 244.639375 320.63375 243.83984375 320.8515625 C239.57076696 321.90252368 235.40262727 322.03494652 231.02734375 322.0390625 C230.35380859 322.05130859 229.68027344 322.06355469 228.98632812 322.07617188 C223.96415628 322.09058959 219.68984431 321.12851106 214.83984375 319.8515625 C214.7344539 325.31144885 214.69676092 330.76642913 214.71777344 336.22729492 C214.71584445 338.07863739 214.69643837 339.93005726 214.65820312 341.78100586 C214.38908845 355.60677252 216.33677068 362.84349098 225.83984375 372.8515625 C227.16801965 374.57988391 228.47018093 376.3286926 229.73828125 378.1015625 C230.31964844 378.89433594 230.90101563 379.68710937 231.5 380.50390625 C232.34884766 381.66599609 232.34884766 381.66599609 233.21484375 382.8515625 C234.38833757 384.45645011 235.56278891 386.06063811 236.73828125 387.6640625 C237.27259766 388.3960083 237.80691406 389.1279541 238.35742188 389.88208008 C239.59774754 391.52992381 240.9244441 393.11227963 242.26953125 394.67578125 C243.83984375 396.8515625 243.83984375 396.8515625 243.58984375 400.6640625 C243.34234375 401.7159375 243.09484375 402.7678125 242.83984375 403.8515625 C240.52984375 404.1815625 238.21984375 404.5115625 235.83984375 404.8515625 C230.00644651 397.36492135 224.28585954 389.8022025 218.65234375 382.1640625 C218.08306152 381.39344482 217.5137793 380.62282715 216.92724609 379.82885742 C215.79052925 378.28345365 214.67060569 376.72556786 213.56713867 375.15625 C211.89972767 372.81981718 211.89972767 372.81981718 209.87231445 370.875 C202.00257349 362.19828471 204.09450789 350.16095861 204.40234375 339.2265625 C204.43749851 337.05603984 204.46943016 334.88546245 204.49804688 332.71484375 C204.57474824 327.42587881 204.69151089 322.13897788 204.83984375 316.8515625 C204.27404099 316.80466278 203.70823822 316.75776306 203.12528992 316.70944214 C198.03263724 316.22572155 193.48198346 315.31316764 188.609375 313.671875 C187.97045822 313.45844452 187.33154144 313.24501404 186.67326355 313.02511597 C185.33842895 312.57718051 184.00503574 312.12492753 182.6730957 311.66845703 C180.6493678 310.97554355 178.6211599 310.29730327 176.59179688 309.62109375 C170.81295061 307.67308252 165.25762179 305.68819778 159.83984375 302.8515625 C159.79738525 303.49697998 159.75492676 304.14239746 159.71118164 304.80737305 C159.13878912 312.24318195 157.83941567 319.37876911 156.27734375 326.6640625 C155.81218924 328.83606495 155.35236982 331.00921825 154.8984375 333.18359375 C154.69532959 334.12952393 154.49222168 335.0754541 154.28295898 336.05004883 C153.16111604 343.14269221 154.67521728 347.57822173 157.55859375 353.9765625 C157.93592651 354.84168457 158.31325928 355.70680664 158.70202637 356.59814453 C159.90430632 359.35395463 161.12029121 362.10335646 162.33984375 364.8515625 C163.94611689 368.47122579 165.53791021 372.09675043 167.12109375 375.7265625 C167.492948 376.55172363 167.86480225 377.37688477 168.2479248 378.22705078 C170.13309245 382.55296276 171.51398135 386.03313637 170.83984375 390.8515625 C168.83984375 392.8515625 168.83984375 392.8515625 165.71484375 392.9765625 C164.76609375 392.9353125 163.81734375 392.8940625 162.83984375 392.8515625 C158.05222348 383.66848198 153.97533842 374.29134959 150.02734375 364.7265625 C149.1516178 362.61614728 148.27469715 360.50623293 147.39729309 358.39651489 C146.61334362 356.50981148 145.83234264 354.62188372 145.05151367 352.73388672 C144.35913942 351.08686467 143.6388511 349.4495772 142.83984375 347.8515625 C141.74933721 338.02603762 144.26656281 328.39567798 146.27734375 318.8515625 C146.60706323 317.24107828 146.93584612 315.63040202 147.26367188 314.01953125 C149.63213699 302.47468277 149.63213699 302.47468277 150.83984375 298.8515625 C150.30979736 298.68793213 149.77975098 298.52430176 149.23364258 298.35571289 C143.12682362 296.40362542 137.34971228 293.96255456 131.52734375 291.2890625 C130.64755859 290.89009766 129.76777344 290.49113281 128.86132812 290.08007812 C125.15582079 288.39473348 121.47242847 286.68974411 117.83984375 284.8515625 C115.68715235 289.7008434 113.55156351 294.55717155 111.43115234 299.4206543 C110.70821386 301.07241509 109.98072793 302.72219361 109.24853516 304.36987305 C108.19388136 306.74535517 107.15605341 309.12760184 106.12109375 311.51171875 C105.62893372 312.60589867 105.62893372 312.60589867 105.12683105 313.72218323 C102.05504819 320.8842685 102.53919721 326.55420262 104.58984375 334.0390625 C106.27617072 340.44159612 107.7615686 346.86507181 109.08984375 353.3515625 C109.26483398 354.17551514 109.43982422 354.99946777 109.62011719 355.84838867 C110.64652234 360.94375713 111.18500217 365.65117561 110.83984375 370.8515625 C108.83984375 372.8515625 108.83984375 372.8515625 105.71484375 372.9765625 C104.76609375 372.9353125 103.81734375 372.8940625 102.83984375 372.8515625 C100.09079376 365.32118937 98.34898995 357.65233175 96.67773438 349.83032227 C96.21338644 347.65724252 95.74209669 345.48575922 95.26953125 343.31445312 C90.25547096 320.14577922 90.25547096 320.14577922 95.0859375 309.51953125 C95.4165065 308.76110428 95.7470755 308.00267731 96.08766174 307.2212677 C97.13729048 304.82094288 98.20666463 302.43006095 99.27734375 300.0390625 C100.33972177 297.62832786 101.39806337 295.21584759 102.45631409 292.80329895 C103.1139964 291.30821771 103.77495491 289.81457233 104.43955994 288.32255554 C105.68661711 285.52021677 106.86915258 282.76363601 107.83984375 279.8515625 C107.08646729 279.46786499 107.08646729 279.46786499 106.31787109 279.07641602 C62.41976104 256.6170342 62.41976104 256.6170342 55.96484375 237.2890625 C53.51132748 229.40648895 53.30917578 222.05922713 53.83984375 213.8515625 C52.75703125 213.71492187 51.67421875 213.57828125 50.55859375 213.4375 C46.83984375 212.8515625 46.83984375 212.8515625 43.33984375 211.4765625 C39.69870133 210.41351641 39.69870133 210.41351641 36.58984375 212.9765625 C35.996875 213.44707031 35.40390625 213.91757812 34.79296875 214.40234375 C26.32299974 220.68706076 16.97225999 220.18376002 6.90039062 219.61645508 C0.87116811 219.29960741 0.87116811 219.29960741 -4.25 222.2421875 C-4.88035156 223.10328125 -5.51070313 223.964375 -6.16015625 224.8515625 C-7.84765625 226.6640625 -7.84765625 226.6640625 -9.16015625 227.8515625 C-9.82015625 227.8515625 -10.48015625 227.8515625 -11.16015625 227.8515625 C-11.25683594 229.29208984 -11.25683594 229.29208984 -11.35546875 230.76171875 C-12.09033063 235.82819729 -14.5330451 239.88961992 -17.03515625 244.2890625 C-17.5262085 245.16506104 -18.01726074 246.04105957 -18.52319336 246.94360352 C-25.97336493 260.02564399 -34.81678405 272.07278673 -44.16015625 283.8515625 C-44.86398437 284.75003906 -45.5678125 285.64851563 -46.29296875 286.57421875 C-52.80975166 294.73823276 -59.93478092 302.31756562 -67.16015625 309.8515625 C-67.69608398 310.41085449 -68.23201172 310.97014648 -68.78417969 311.54638672 C-75.50583635 318.51910338 -82.53981426 324.86046819 -90.16015625 330.8515625 C-91.21767607 331.72079788 -92.27360443 332.59197223 -93.328125 333.46484375 C-124.37188023 358.90385439 -162.00625529 372.05183775 -202.2734375 368.5390625 C-215.08677185 367.02365231 -227.24089965 363.70511499 -239.34765625 359.3515625 C-240.14977539 359.06708252 -240.95189453 358.78260254 -241.77832031 358.48950195 C-246.20823311 356.83933592 -249.6160597 355.09025594 -253.16015625 351.8515625 C-252.85251763 349.00590529 -252.65391253 347.33440034 -250.5703125 345.296875 C-247.47465388 343.44048328 -244.33476337 342.77821859 -240.84765625 342.0390625 C-234.23260348 340.52958737 -228.0983255 338.43601191 -221.8581543 335.78198242 C-217.31821919 333.8515625 -217.31821919 333.8515625 -215.16015625 333.8515625 C-214.78890625 332.645 -214.78890625 332.645 -214.41015625 331.4140625 C-211.13312922 322.07453547 -211.13312922 322.07453547 -209.16015625 318.8515625 C-205.80093635 317.37678303 -204.64064322 317.69140018 -201.16015625 318.8515625 C-193.52855136 319.48065425 -187.20767009 319.89115736 -181.16015625 314.8515625 C-175.81267587 308.70041455 -173.66841903 300.45106506 -171.16015625 292.8515625 C-172.03671875 293.1403125 -172.91328125 293.4290625 -173.81640625 293.7265625 C-191.04666076 298.93786759 -210.26155178 298.3544405 -227.71875 294.25 C-230.89350481 293.61826127 -233.08143493 293.3099451 -236.02734375 294.7890625 C-243.00285567 300.34631681 -248.38399824 308.28595418 -253.86669922 315.2668457 C-255.16015625 316.8515625 -255.16015625 316.8515625 -257.16015625 318.8515625 C-259.66015625 318.6640625 -259.66015625 318.6640625 -262.16015625 317.8515625 C-264.5564508 314.25712067 -264.41796956 311.70294598 -264.35546875 307.55859375 C-264.35263885 306.85256516 -264.34980896 306.14653656 -264.34689331 305.41911316 C-264.33571089 303.16725617 -264.31061045 300.91579898 -264.28515625 298.6640625 C-264.27512392 297.13607346 -264.26599851 295.60807817 -264.2578125 294.08007812 C-264.23577797 290.33708587 -264.20126192 286.59439194 -264.16015625 282.8515625 C-265.12236084 282.32957275 -266.08456543 281.80758301 -267.07592773 281.26977539 C-275.98046201 276.40501833 -283.93537763 271.07634112 -291.16015625 263.8515625 C-291.41015625 260.8515625 -291.41015625 260.8515625 -291.16015625 257.8515625 C-289.16015625 255.8515625 -289.16015625 255.8515625 -285.90380859 255.62451172 C-284.5178633 255.62482868 -283.13189324 255.63614491 -281.74609375 255.65625 C-281.01645416 255.6590799 -280.28681458 255.66190979 -279.5350647 255.66482544 C-277.20159597 255.67603248 -274.86850922 255.7011374 -272.53515625 255.7265625 C-270.95443262 255.73659165 -269.37370298 255.74571761 -267.79296875 255.75390625 C-263.91521711 255.77597345 -260.03775147 255.81050635 -256.16015625 255.8515625 C-255.99362549 255.30048828 -255.82709473 254.74941406 -255.65551758 254.18164062 C-253.88583296 248.57674646 -251.6519967 243.50919563 -248.84765625 238.3515625 C-248.45392822 237.61687744 -248.0602002 236.88219238 -247.65454102 236.12524414 C-244.7818557 230.83024965 -241.70408648 225.72967823 -238.16015625 220.8515625 C-238.82015625 221.5115625 -239.48015625 222.1715625 -240.16015625 222.8515625 C-243.73548497 223.48250286 -245.89058322 222.57922966 -248.97265625 220.9140625 C-254.78581525 217.87610769 -254.78581525 217.87610769 -261.16015625 217.8515625 C-269.09918157 222.17162952 -276.00390641 228.20765067 -282.72265625 234.19921875 C-285.51566251 236.09255472 -286.85527906 236.38190597 -290.16015625 235.8515625 C-292.16015625 233.8515625 -292.16015625 233.8515625 -292.35546875 230.62890625 C-290.92516901 202.96690935 -274.60988929 177.36993425 -256.16015625 157.8515625 C-255.41378906 157.04074219 -254.66742188 156.22992188 -253.8984375 155.39453125 C-238.25417571 138.97452094 -217.12828732 126.49923992 -195.16015625 120.8515625 C-194.46212891 120.65981445 -193.76410156 120.46806641 -193.04492188 120.27050781 C-157.75964764 110.85803039 -113.3750826 116.32499648 -79.140625 127.25 C-75.46170772 127.99253376 -72.84628383 127.56798855 -69.16015625 126.8515625 C-68.27996826 126.68060059 -67.39978027 126.50963867 -66.49291992 126.33349609 C-64.04577574 125.85256444 -61.60220047 125.3576602 -59.16015625 124.8515625 C-60.05210693 124.47870117 -60.94405762 124.10583984 -61.86303711 123.72167969 C-65.21258093 122.32115886 -68.56156847 120.91931196 -71.91040039 119.51708984 C-73.35230925 118.913545 -74.79436325 118.31034677 -76.23657227 117.70751953 C-80.88206251 115.76559189 -85.52289327 113.81306213 -90.16015625 111.8515625 C-91.11140381 111.45187256 -92.06265137 111.05218262 -93.04272461 110.64038086 C-93.83171143 110.30143799 -94.62069824 109.96249512 -95.43359375 109.61328125 C-96.08118652 109.33701904 -96.7287793 109.06075684 -97.39599609 108.77612305 C-101.16868981 106.79893081 -104.10332795 103.77129053 -107.16015625 100.8515625 C-109.42559877 98.72077915 -111.69857663 96.59812169 -113.97265625 94.4765625 C-114.57779053 93.91042236 -115.1829248 93.34428223 -115.80639648 92.76098633 C-120.24365137 88.63453502 -124.83151283 84.75898302 -129.5703125 80.98046875 C-133.05944678 78.1123267 -136.32311326 75.02413098 -139.578125 71.89453125 C-145.68766848 67.06050517 -153.233746 64.56123708 -160.46875 61.8828125 C-161.91798607 61.33953308 -161.91798607 61.33953308 -163.39649963 60.78527832 C-166.46202303 59.63656764 -169.5296371 58.49358899 -172.59765625 57.3515625 C-175.66188469 56.20896885 -178.72559359 55.06504517 -181.7881012 53.91784668 C-183.68592515 53.20710759 -185.58474078 52.49900862 -187.48472595 51.79406738 C-191.76123247 50.19415448 -196.01926567 48.55012487 -200.23461914 46.79492188 C-200.96121231 46.49501343 -201.68780548 46.19510498 -202.43641663 45.8861084 C-204.16015625 44.8515625 -204.16015625 44.8515625 -205.41015625 41.7890625 C-205.16015625 38.8515625 -205.16015625 38.8515625 -204.09765625 36.9140625 C-201.23141709 35.34225393 -199.31056977 36.18605536 -196.16015625 36.8515625 C-194.27924542 37.42318468 -192.41237862 38.04262242 -190.56054688 38.70239258 C-189.48502563 39.08402054 -188.40950439 39.4656485 -187.3013916 39.85884094 C-182.38029132 41.64125092 -177.46196385 43.4304676 -172.55078125 45.23999023 C-169.97703133 46.18637852 -167.39806088 47.11543744 -164.8125 48.02905273 C-149.79156847 53.34421354 -137.30941285 58.28399698 -126.16015625 69.8515625 C-124.81690181 71.03034595 -123.46035376 72.1944505 -122.08203125 73.33203125 C-116.01973068 78.50380894 -110.0203627 83.72102011 -104.1484375 89.109375 C-102.07478673 91.00319031 -102.07478673 91.00319031 -99.16015625 92.8515625 C-107.82693993 80.96011425 -116.65755539 69.22089916 -125.7565918 57.65649414 C-126.21976807 57.0608667 -126.68294434 56.46523926 -127.16015625 55.8515625 C-127.71421143 55.15732178 -128.2682666 54.46308105 -128.83911133 53.74780273 C-130.16015625 51.8515625 -130.16015625 51.8515625 -130.16015625 49.8515625 C-130.89572754 49.58150391 -131.63129883 49.31144531 -132.38916016 49.03320312 C-135.05777263 47.89522212 -137.14345324 46.6284164 -139.49609375 44.9453125 C-140.30546387 44.37135742 -141.11483398 43.79740234 -141.94873047 43.20605469 C-142.80225098 42.59407227 -143.65577148 41.98208984 -144.53515625 41.3515625 C-146.33627049 40.07415334 -148.13836184 38.79812081 -149.94140625 37.5234375 C-150.82828125 36.89630859 -151.71515625 36.26917969 -152.62890625 35.62304688 C-156.05892498 33.22256309 -159.53794604 30.90258063 -163.03515625 28.6015625 C-181.76443138 16.24728737 -181.76443138 16.24728737 -185.16015625 12.8515625 C-184.8728557 10.51211514 -184.54078846 8.1776482 -184.16015625 5.8515625 C-178.86636983 4.48354293 -178.86636983 4.48354293 -175.80737305 6.07763672 C-175.02015869 6.7223291 -174.23294434 7.36702148 -173.421875 8.03125 C-168.57259532 11.80464448 -163.62148126 15.28802582 -158.4921875 18.671875 C-157.72155975 19.18312927 -156.95093201 19.69438354 -156.1569519 20.22113037 C-153.76366444 21.808519 -151.3684331 23.39293391 -148.97265625 24.9765625 C-145.78982057 27.08056288 -142.60914525 29.1877745 -139.4296875 31.296875 C-138.71802933 31.76578156 -138.00637115 32.23468811 -137.27314758 32.71780396 C-129.381597 37.95345439 -122.63629349 42.82459608 -117.03515625 50.5390625 C-116.49165527 51.26802734 -115.9481543 51.99699219 -115.38818359 52.74804688 C-113.63368291 55.10739253 -111.89617396 57.47859207 -110.16015625 59.8515625 C-108.9264235 61.52521321 -107.69204224 63.19838605 -106.45703125 64.87109375 C-104.66464935 67.29977829 -102.87422735 69.72967776 -101.09326172 72.16674805 C-99.99687778 73.66544335 -98.88905839 75.15583926 -97.77001953 76.63769531 C-96.16015625 78.8515625 -96.16015625 78.8515625 -94.82763672 81.08886719 C-89.27748159 89.69750011 -80.00844537 92.96312895 -71.03515625 97.1015625 C-69.28856149 97.92583176 -67.54271745 98.75169354 -65.79760742 99.57910156 C-61.42693599 101.64310335 -57.0429019 103.67668395 -52.65313721 105.69970703 C-50.28579208 106.7935138 -47.92302866 107.89651698 -45.56201172 109.00390625 C-42.16100057 110.59848494 -38.75414974 112.17948182 -35.33966064 113.74499512 C-33.50609846 114.58621947 -31.67562361 115.43416263 -29.84521484 116.28222656 C-28.20093506 117.02037598 -28.20093506 117.02037598 -26.5234375 117.7734375 C-25.57766846 118.20237305 -24.63189941 118.63130859 -23.6574707 119.07324219 C-20.91727639 119.92725915 -19.78186262 119.93930291 -17.16015625 118.8515625 C-15.48185825 117.53289978 -13.81400858 116.20075782 -12.16015625 114.8515625 C-11.50015625 114.8515625 -10.84015625 114.8515625 -10.16015625 114.8515625 C-10.37671875 114.32046875 -10.59328125 113.789375 -10.81640625 113.2421875 C-11.2340625 112.18257812 -11.2340625 112.18257812 -11.66015625 111.1015625 C-12.0778125 110.05742187 -12.0778125 110.05742187 -12.50390625 108.9921875 C-13.16015625 106.8515625 -13.16015625 106.8515625 -13.16015625 102.8515625 C-14.64515625 103.3465625 -14.64515625 103.3465625 -16.16015625 103.8515625 C-32.76256992 104.84161469 -47.42528314 101.71479215 -60.47265625 90.6640625 C-70.82920326 80.72244125 -77.45886533 66.99129903 -78.36328125 52.625 C-78.59362228 35.92527535 -73.94028798 23.21528288 -62.3671875 11.06640625 C-61.63886719 10.33550781 -60.91054688 9.60460937 -60.16015625 8.8515625 C-59.60714844 8.27535156 -59.05414063 7.69914063 -58.484375 7.10546875 C-43.58662383 -7.12687418 -17.89668722 -9.51469447 0 0 Z" fill="var(--stroke, #000000)" transform="translate(468.16015625,166.1484375)"/>

<!-- #endregion -->

<!-- #region body -->

<!-- 1st body part -->
<path d="M0 0 C0.91652344 0.01160156 1.83304688 0.02320313 2.77734375 0.03515625 C3.69644531 0.04417969 4.61554688 0.05320312 5.5625 0.0625 C6.27277344 0.07410156 6.98304688 0.08570313 7.71484375 0.09765625 C15.87612239 22.43186967 10.70644009 43.53191239 3.5546875 65.36328125 C-1.10756771 79.70491671 -4.85409033 94.21270877 -7.28515625 109.09765625 C-8.54328125 108.97390625 -9.80140625 108.85015625 -11.09765625 108.72265625 C-12.15919922 108.61824219 -12.15919922 108.61824219 -13.2421875 108.51171875 C-15.28515625 108.09765625 -15.28515625 108.09765625 -18.28515625 106.09765625 C-18.578125 103.90209961 -18.578125 103.90209961 -18.47265625 101.1875 C-18.44945312 100.19685547 -18.42625 99.20621094 -18.40234375 98.18554688 C-18.32523446 96.11259218 -18.24713656 94.03967398 -18.16796875 91.96679688 C-17.90478843 80.62811129 -21.09148398 71.99317612 -28.59765625 63.47265625 C-29.48453125 62.68890625 -30.37140625 61.90515625 -31.28515625 61.09765625 C-31.836875 60.60394531 -32.38859375 60.11023438 -32.95703125 59.6015625 C-44.01600708 50.43906393 -56.8988542 50.46052651 -70.53515625 50.34765625 C-72.26304992 50.31943647 -73.99091646 50.28950088 -75.71875 50.2578125 C-79.90750236 50.18466758 -84.09593516 50.13466125 -88.28515625 50.09765625 C-81.21906104 35.51138107 -67.76358764 26.14704713 -54.16259766 18.22021484 C-52.94674544 17.49323325 -51.75330668 16.72678738 -50.59130859 15.91650391 C-45.60345895 12.59467482 -41.15978372 12.67212991 -35.28515625 13.09765625 C-35.14416504 13.69715088 -35.00317383 14.29664551 -34.85791016 14.91430664 C-34.21036407 17.66332803 -33.56027921 20.41174318 -32.91015625 23.16015625 C-32.57757813 24.57458008 -32.57757813 24.57458008 -32.23828125 26.01757812 C-31.0376992 31.08474058 -29.76694767 36.10526553 -28.28515625 41.09765625 C-24.70187872 42.09982689 -24.70187872 42.09982689 -21.28515625 41.09765625 C-20.63261249 33.39401459 -22.24421524 26.7430609 -24.41015625 19.41796875 C-25.28515625 16.09765625 -25.28515625 16.09765625 -25.28515625 12.09765625 C-24.53492188 11.80632812 -23.7846875 11.515 -23.01171875 11.21484375 C-16.41072164 8.57111947 -6.60407768 0.28222554 0 0 Z" fill="var(--body-part1-color, #7DB05E)" transform="translate(531.28515625,260.90234375)"/>

<!-- 2nd body part -->
<path d="M0 0 C37.66841212 -0.44548713 78.0524863 4.86710381 113.87890625 16.953125 C116.81678028 17.93854457 119.74680717 18.7418307 122.75 19.5 C128.7609089 21.12241346 134.32993284 23.44267154 140 26 C141.17393311 26.524729 141.17393311 26.524729 142.37158203 27.06005859 C162.37997878 36.06327373 176.94724018 43.80017039 185.5859375 65.02734375 C187.21996831 69.44956605 188.52520363 73.94938221 189.75 78.5 C189.94867676 79.23404053 190.14735352 79.96808105 190.35205078 80.72436523 C193.59899526 93.51320867 194.32513499 106.03595455 194.26074219 119.15722656 C194.25007182 121.73266452 194.26067333 124.30739625 194.2734375 126.8828125 C194.28716521 141.62408911 193.36463433 156.28230693 189.75 170.625 C189.53529053 171.49616455 189.32058105 172.3673291 189.09936523 173.26489258 C186.03288828 185.27480284 182.06016936 196.70476744 175 207 C174.401875 207.928125 173.80375 208.85625 173.1875 209.8125 C166.65805214 216.34194786 159.05267494 218.08024017 150.0625 218.375 C121.20345006 218.01388572 90.99201527 204.55673115 65 193 C63.96987793 192.54399414 62.93975586 192.08798828 61.87841797 191.61816406 C49.28638257 186.01015685 36.88654248 180.04493152 24.625 173.75 C23.53856201 173.19602539 22.45212402 172.64205078 21.33276367 172.07128906 C13.87261278 168.18803308 6.90572207 163.79487884 0 159 C-0.95124756 158.34346436 -1.90249512 157.68692871 -2.88256836 157.01049805 C-10.45261935 151.66348682 -14.96861832 144.70142667 -16.62890625 135.5234375 C-19.0269721 112.75443328 -12.26561774 90.74491756 -5.65478516 69.17651367 C-2.79664983 59.84771222 -0.28640238 50.48511198 2 41 C2.19698486 40.30003906 2.39396973 39.60007812 2.59692383 38.87890625 C3.54052507 34.48038708 3.22833823 29.85357034 3.25 25.375 C3.270625 24.33214844 3.29125 23.28929687 3.3125 22.21484375 C3.34329967 16.04720969 2.7065178 10.87299758 0.64746094 5.04541016 C0 3 0 3 0 0 Z " fill="var(--body-part2-color, #7DB05E)" transform="translate(549,260)"/>

<!-- 3th body part -->
<path d="M0 0 C1.7159436 0.00845947 1.7159436 0.00845947 3.46655273 0.01708984 C26.79820566 0.34673899 53.66834642 5.96405324 71.25 22.67578125 C87.6229696 42.16519677 91.19051927 71.88744114 91.01611328 96.44067383 C91.00007404 99.11266595 91.01604116 101.7831322 91.03515625 104.45507812 C91.06302954 125.96474755 89.14361405 153.2290592 74.125 170.125 C73.3 170.846875 72.475 171.56875 71.625 172.3125 C70.573125 173.3025 70.573125 173.3025 69.5 174.3125 C65.1703095 177.32445861 60.48647749 179.30155458 55.625 181.3125 C54.57699219 181.74755859 54.57699219 181.74755859 53.5078125 182.19140625 C40.45423765 187.04205371 26.33563556 187.83013726 12.55883789 187.75854492 C10.05988098 187.74999104 7.56318932 187.77902248 5.06445312 187.81054688 C-8.30816063 187.86921959 -21.62567285 186.66278431 -32.96875 178.875 C-34.375 177.3125 -34.375 177.3125 -34.375 173.3125 C-33.24407305 171.34916488 -32.02106457 169.43815333 -30.75 167.5625 C-9.59753847 134.82029136 -6.73441853 81.95470203 -14.53417969 44.63134766 C-15.104283 42.17816117 -15.72668483 39.74611549 -16.375 37.3125 C-16.59994141 36.43980469 -16.82488281 35.56710937 -17.05664062 34.66796875 C-19.78025116 24.29874076 -23.02291444 14.65018119 -28.375 5.3125 C-19.00475083 0.92642592 -10.30668768 -0.05330389 0 0 Z " fill="var(--body-part2-color, #7DB05E)" transform="translate(764.375,301.6875)"/>

<!-- 4th body part -->
<path d="M0 0 C10.66631491 8.42798758 14.35111978 22.38036748 17.07421875 35.12890625 C17.23736572 35.89178955 17.4005127 36.65467285 17.56860352 37.44067383 C22.85800825 63.84265733 22.82367712 94.80106515 8.13671875 118.19140625 C-8.22929634 134.55742134 -36.09110294 140.83538217 -58.61328125 141.00390625 C-69.37475458 140.91306447 -79.52148316 139.42734472 -88.17578125 132.50390625 C-87.07298318 129.56311139 -85.83106217 126.85012868 -84.36328125 124.06640625 C-66.65608834 88.12541246 -69.1570422 37.952932 -81.17578125 0.50390625 C-82.22537569 -2.24675504 -83.31039279 -4.92804398 -84.57421875 -7.5859375 C-85.34303928 -10.02719229 -85.28716838 -11.1855784 -84.17578125 -13.49609375 C-82.13671875 -14.5078125 -82.13671875 -14.5078125 -79.55078125 -15.18359375 C-78.71289062 -15.41433594 -77.875 -15.64507812 -77.01171875 -15.8828125 C-51.13378369 -21.47900507 -21.73209026 -14.94325057 0 0 Z " fill="var(--body-part4-color, #7DB05E)" transform="translate(937.17578125,342.49609375)"/>

<!-- 5th body part -->
<path d="M0 0 C10.24336115 7.97574685 13.84232377 22.65496612 15.88525391 34.91845703 C16.7238717 41.89699066 16.82236378 48.88417841 16.859375 55.90625 C16.8681366 56.6320929 16.87689819 57.35793579 16.88592529 58.10577393 C16.99107945 70.79712648 15.27876298 83.63208362 6.296875 93.34375 C-7.71815249 104.75401087 -27.4222253 109.5153458 -45.203125 109.53125 C-45.92371094 109.54349609 -46.64429688 109.55574219 -47.38671875 109.56835938 C-52.19786683 109.58140951 -56.13594621 108.86413978 -60.703125 107.34375 C-59.61216772 104.01318329 -58.47571311 100.70670164 -57.265625 97.41796875 C-53.53089985 87.08065635 -51.2103628 77.34816198 -50.703125 66.34375 C-50.65397949 65.3031543 -50.60483398 64.26255859 -50.55419922 63.19042969 C-49.57590251 38.42795161 -52.1155398 13.64024095 -63.703125 -8.65625 C-44.20270828 -19.08670545 -17.71179856 -10.85231588 0 0 Z " fill="var(--body-part5-color, #7DB05E)" transform="translate(1016.703125,355.65625)"/>

<!-- 6th (last) body part -->
<path d="M0 0 C8.31752356 7.74810875 8.76995347 24.79089095 9.17553711 35.41577148 C9.27150798 38.9030153 9.31104476 42.38924392 9.33032227 45.87768555 C9.34183621 47.32114469 9.36227925 48.76456144 9.3918457 50.20776367 C9.60819885 60.83082426 9.52386713 72.09861887 2.59765625 80.80078125 C1.00390625 81.81640625 1.00390625 81.81640625 -0.96484375 82.73828125 C-1.77953125 83.125 -2.59421875 83.51171875 -3.43359375 83.91015625 C-18.22016225 89.59131152 -36.38420585 88.3987022 -50.96484375 82.73828125 C-50.53171875 81.32869141 -50.53171875 81.32869141 -50.08984375 79.890625 C-43.46389918 56.01717272 -44.72723727 27.42550407 -54.07421875 4.4609375 C-54.96484375 1.73828125 -54.96484375 1.73828125 -53.96484375 -1.26171875 C-39.0453475 -8.13526171 -14.07741684 -9.03977264 0 0 Z " fill="var(--body-part6-color, #7DB05E)" transform="translate(1088.96484375,362.26171875)"/>

<!-- #endregion -->

<!-- #region claws -->

<!-- #region left claw -->

<!-- #region primary -->

<!-- left claw top front -->
<path d="M276 358 C278.95984464 360.74791786 280.93618906 363.33322994 282.8125 366.90234375 C283.58110352 368.34661743 283.58110352 368.34661743 284.36523438 369.82006836 C284.90470703 370.8488208 285.44417969 371.87757324 286 372.9375 C287.1542063 375.10525605 288.31050033 377.27190165 289.46875 379.4375 C290.34660156 381.07912109 290.34660156 381.07912109 291.2421875 382.75390625 C294.8207206 389.36226403 298.59084994 395.86083999 302.34375 402.37109375 C302.78074219 403.13534668 303.21773438 403.89959961 303.66796875 404.68701172 C304.59433475 406.29558787 305.53559277 407.89564184 306.48828125 409.48876953 C306.95621094 410.28782715 307.42414063 411.08688477 307.90625 411.91015625 C308.33228516 412.62437744 308.75832031 413.33859863 309.19726562 414.07446289 C310 416 310 416 309 419 C307.328125 420.61328125 307.328125 420.61328125 305.25 422.3125 C301.71708237 425.29895915 298.84239057 428.35818708 296 432 C295.48695313 431.855625 294.97390625 431.71125 294.4453125 431.5625 C284.57139743 429.16882362 271.81017796 427.68022917 262.3125 432 C255.02953655 436.44511907 251.1221299 442.26457369 248 450 C246.31583984 449.87818359 246.31583984 449.87818359 244.59765625 449.75390625 C234.66991734 449.04050974 234.66991734 449.04050974 225.875 453 C223.83652102 454.88766711 223.83652102 454.88766711 222 457 C221.32195312 457.74121094 220.64390625 458.48242188 219.9453125 459.24609375 C218.70807446 460.63984986 217.49399434 462.05478005 216.3125 463.49609375 C215.6628125 464.24052734 215.6628125 464.24052734 215 465 C214.67 465 214.34 465 214 465 C212.23591883 434.52059749 226.78507201 405.10561758 246.5625 382.75 C248.03542467 381.16085829 249.51422041 379.57712951 251 378 C251.59941406 377.33613281 252.19882813 376.67226563 252.81640625 375.98828125 C259.2110506 369.17929709 267.61044703 362.19477648 276 358 Z M276 358 C277.02104551 358.97850195 278.0206121 359.97980427 279 361 C279 361.33 279 361.66 279 362 C276.36 362 273.72 362 271 362 C272.65 360.68 274.3 359.36 276 358 Z" fill="var(--left-claw-top-front, #EFA647)"/>

<!-- left claw top middle -->
<path d="M0 0 C1.58333191 0.00502903 3.16666537 0.00958943 4.75 0.01367188 C8.58337272 0.02455719 12.41666854 0.04174304 16.25 0.0625 C16.50104492 1.05467529 16.75208984 2.04685059 17.01074219 3.0690918 C18.7613505 9.87850179 20.54768406 16.47086013 23.5 22.875 C26.25 28.89913366 26.25 28.89913366 26.25 31.0625 C25.6823291 31.31604248 25.1146582 31.56958496 24.52978516 31.83081055 C-3.60294839 44.4632407 -31.76254144 57.77061525 -58.35620117 73.41967773 C-59.16420166 73.89477783 -59.97220215 74.36987793 -60.8046875 74.859375 C-61.47999512 75.26510742 -62.15530273 75.67083984 -62.85107422 76.08886719 C-64.80536518 77.09088729 -66.60540061 77.6193664 -68.75 78.0625 C-69.14155273 77.35456299 -69.53310547 76.64662598 -69.93652344 75.91723633 C-76.69474858 63.70567977 -83.45891834 51.49810594 -90.375 39.375 C-90.84647461 38.54653564 -91.31794922 37.71807129 -91.80371094 36.86450195 C-94.36705652 32.38692791 -97.02045644 27.99860914 -99.84521484 23.68041992 C-100.75 22.0625 -100.75 22.0625 -100.75 20.0625 C-90.62407396 15.39269892 -80.50676173 11.94846046 -69.75 9.0625 C-68.56978271 8.73934814 -68.56978271 8.73934814 -67.36572266 8.40966797 C-45.07058929 2.34621265 -23.06377472 -0.12872579 0 0 Z " fill="var(--left-claw-top-middle, #EFA647)" transform="translate(386.75,332.9375)"/>

<!-- left claw top right -->
<path d="M0 0 C7.73418984 0.15475645 13.65814299 1.95753423 20.59887695 5.44262695 C21.68168945 5.7984082 22.76450195 6.15418945 23.88012695 6.52075195 C26.59887695 8.44262695 26.59887695 8.44262695 27.2109375 10.36132812 C27.54132824 12.8749873 27.68959898 15.34676658 27.78637695 17.88012695 C27.91148729 19.69958877 28.04297737 21.51862336 28.1809082 23.3371582 C28.24487793 24.21710449 28.30884766 25.09705078 28.37475586 26.00366211 C29.10118736 33.90894603 31.70071782 41.24014625 34.8293457 48.48168945 C35.59887695 50.44262695 35.59887695 50.44262695 35.59887695 52.44262695 C33.9543457 54.1340332 33.9543457 54.1340332 31.78637695 56.00512695 C30.72483398 56.93518555 30.72483398 56.93518555 29.6418457 57.8840332 C27.59887695 59.44262695 27.59887695 59.44262695 24.59887695 60.44262695 C7.3399952 52.09611856 -4.62906797 36.3319054 -11.43237305 18.7824707 C-13.20528495 13.47194291 -14.33041333 8.04250603 -13.40112305 2.44262695 C-9.94682319 -1.0116729 -4.66576095 0.00924087 0 0 Z " fill="var(--left-claw-top-right, #EFA647)" transform="translate(426.401123046875,325.557373046875)"/>

<!-- left claw bottom front -->
<path d="M305 469 C307.84404603 471.5851947 309.80355177 474.54221984 311.9140625 477.7421875 C312.47497086 478.58851242 312.47497086 478.58851242 313.04721069 479.45193481 C314.2431202 481.25745792 315.43432351 483.06602256 316.625 484.875 C318.17778581 487.22782356 319.73270654 489.57922415 321.2890625 491.9296875 C321.67233704 492.50893982 322.05561157 493.08819214 322.45050049 493.68499756 C326.54380716 499.85245167 330.76191084 505.93133911 335 512 C317.32434103 525.87925365 287.13562202 526.85303722 265.765625 524.45703125 C256.40086388 523.25588366 246.72405391 521.76063057 238 518 C237.67 517.34 237.34 516.68 237 516 C238.22976562 515.55269531 239.45953125 515.10539063 240.7265625 514.64453125 C242.35961062 514.03448454 243.99241013 513.42377202 245.625 512.8125 C246.43324219 512.52052734 247.24148437 512.22855469 248.07421875 511.92773438 C254.10141643 509.64915964 259.04745893 507.28381907 262.4609375 501.54296875 C262.76257813 500.76566406 263.06421875 499.98835938 263.375 499.1875 C263.69210937 498.39730469 264.00921875 497.60710937 264.3359375 496.79296875 C264.55507813 496.20128906 264.77421875 495.60960937 265 495 C266.11117188 495.05800781 267.22234375 495.11601562 268.3671875 495.17578125 C277.14081626 495.5004746 284.81212157 495.77742681 292 490 C298.01634476 484.08030335 301.49896703 476.57915929 305 469 Z M245 514 C245.33 515.32 245.66 516.64 246 518 C243.08517222 518.80967438 241.53886783 519.21845993 238.6875 518.0625 C238.130625 517.711875 237.57375 517.36125 237 517 C241.5 514 241.5 514 245 514 Z M265 495 C269.95 495.33 274.9 495.66 280 496 C280 496.33 280 496.66 280 497 C278.06263299 497.16820551 276.12510094 497.33451095 274.1875 497.5 C272.56908203 497.63921875 272.56908203 497.63921875 270.91796875 497.78125 C268 498 268 498 265 498 C265 497.01 265 496.02 265 495 Z" fill="var(--left-claw-bottom-front, #EFA647)"/>

<!-- left claw merus -->
<path d="M0 0 C11.22936205 -0.67376172 20.49589105 -0.95946043 30 6 C35.19574232 10.62547792 39.62275061 17.12696408 41 24 C42.00177659 42.8796358 42.00177659 42.8796358 38 49 C31.17280352 53.53997073 24.92295498 55.15458377 16.8125 55.0625 C16.06291016 55.05798828 15.31332031 55.05347656 14.54101562 55.04882812 C12.69397617 55.03706354 10.84697787 55.01912865 9 55 C1.33988591 37.37870989 -3.64815893 19.34983497 0 0 Z " fill="var(--left-claw-merus, #EFA647)" transform="translate(463,321)"/>

<!-- #endregion -->

<!-- #region secondary -->

<!-- left claw secondary -->
<path d="M0 0 C1.359375 1.42578125 1.359375 1.42578125 2.75 3.3125 C9.03576002 10.90779336 17.84135784 16.56090522 26 22 C24.38724437 27.94949487 21.37147383 32.92931665 18.25 38.1875 C17.67580322 39.15494141 17.10160645 40.12238281 16.51000977 41.11914062 C7.42942916 56.15958233 -3.25852857 69.95392064 -15 83 C-15.73814941 83.82274414 -15.73814941 83.82274414 -16.49121094 84.66210938 C-26.95485303 96.27627555 -37.65048558 107.36839797 -50 117 C-51.02996094 117.82371094 -52.05992187 118.64742188 -53.12109375 119.49609375 C-60.4184994 125.28118637 -67.96327455 130.29108394 -76 135 C-81.09860788 130.39353574 -84.75328661 124.89442705 -88.625 119.25 C-89.32923096 118.230271 -90.03346191 117.21054199 -90.7590332 116.15991211 C-96.26148739 108.15788084 -101.63469986 100.07698825 -106.82080078 91.86621094 C-107.65702097 90.54280159 -108.49982461 89.22354177 -109.34716797 87.90722656 C-109.7907666 87.21209961 -110.23436523 86.51697266 -110.69140625 85.80078125 C-111.09174072 85.17727783 -111.4920752 84.55377441 -111.90454102 83.91137695 C-115.39478343 77.8215379 -117.57127295 70.02914112 -117 63 C-115.125 60.375 -115.125 60.375 -112 58 C-111.401875 57.41992188 -110.80375 56.83984375 -110.1875 56.2421875 C-103.57511321 49.85522299 -95.95747428 45.45931017 -88 41 C-87.21399414 40.55624023 -86.42798828 40.11248047 -85.61816406 39.65527344 C-71.87559287 31.93874239 -57.83480224 24.81499003 -43.75 17.75 C-42.91985382 17.3322934 -42.08970764 16.91458679 -41.23440552 16.48422241 C-31.89519245 11.79171575 -22.50156636 7.21719419 -13.015625 2.828125 C-12.17159119 2.42809265 -11.32755737 2.0280603 -10.45794678 1.61590576 C-9.67034973 1.25700256 -8.88275269 0.89809937 -8.07128906 0.52832031 C-7.03442963 0.04797333 -7.03442963 0.04797333 -5.97662354 -0.44207764 C-3.58820482 -1.11623343 -2.30517831 -0.86216482 0 0 Z " fill="var(--left-claw-bottom-middle, #D84343)" transform="translate(421,373)"/>

<!-- #endregion -->

<!-- #endregion -->

<!-- #region right claw-->

<!-- #region primary -->

<!-- right claw top front -->
<path d="M0 0 C0.2266333 0.92224365 0.4532666 1.8444873 0.68676758 2.79467773 C1.53853023 6.25653641 2.39516059 9.71717596 3.25317383 13.17749023 C3.6219904 14.66772812 3.98953278 16.15828201 4.35571289 17.64916992 C6.74968354 27.5551474 6.74968354 27.5551474 9.76171875 37.28515625 C11 41 11 41 11 45 C9.47632813 45.72703125 9.47632813 45.72703125 7.921875 46.46875 C-7.06388315 53.62613573 -7.06388315 53.62613573 -19.9375 63.9375 C-24.153675 66.7769648 -27.82194107 66.49367125 -32.8125 66.71484375 C-40.75791068 67.42564642 -45.97990115 72.09228947 -51 78 C-51.33 78.66 -51.66 79.32 -52 80 C-53.45903258 79.69078116 -54.91720722 79.37751201 -56.375 79.0625 C-57.59316406 78.80146484 -57.59316406 78.80146484 -58.8359375 78.53515625 C-61 78 -61 78 -63 77 C-72.62603464 75.39566089 -78.4863028 80.7214531 -86 86 C-86.99 86.495 -86.99 86.495 -88 87 C-87.45427303 81.59170585 -86.11581838 77.24810346 -83.875 72.3125 C-83.56151611 71.61406982 -83.24803223 70.91563965 -82.92504883 70.19604492 C-69.44708073 40.72795306 -44.86509272 15.8185257 -14.34765625 4.17578125 C-2.92855987 0 -2.92855987 0 0 0 Z " fill="var(--right-claw-top-front, #EFA647)" transform="translate(277,297)"/>

<!-- right claw top middle -->
<path d="M0 0 C0 6.27 0 12.54 0 19 C-1.39863281 19.01417969 -2.79726563 19.02835937 -4.23828125 19.04296875 C-31.64637932 19.58842673 -58.19491707 23.86126592 -84.53759766 31.34179688 C-87.33660882 32.08997594 -90.12723175 32.6242162 -93 33 C-95.18997353 28.19818836 -96.75630407 23.52526827 -97.9375 18.375 C-99.42821064 12.09732168 -101.19979505 5.98522236 -103.265625 -0.1328125 C-104.05151553 -3.20112977 -104.05131627 -5.84623288 -104 -9 C-69.67786169 -15.67695057 -33.35850451 -8.64310597 0 0 Z " fill="var(--right-claw-top-middle, #EFA647)" transform="translate(391,304)"/>

<!-- right claw top right -->
<path d="M0 0 C10.44695452 -1.15129703 19.34774308 2.23182872 28 8 C27.125 11.875 27.125 11.875 26 13 C23.98088714 13.13342155 21.95938452 13.23125321 19.9375 13.3125 C13.54183393 13.75479085 8.05118422 14.7297564 3.4765625 19.6328125 C2 21 2 21 -1 21 C-2.15795477 17.52613568 -2.16829849 14.72230696 -2.1875 11.0625 C-2.20167969 9.83660156 -2.21585937 8.61070312 -2.23046875 7.34765625 C-2.01676797 4.24356188 -1.63998182 2.58637449 0 0 Z " fill="var(--right-claw-top-right, #EFA647)" transform="translate(403,302)"/>

<!-- right claw bottom front -->
<path d="M274 439 C274.67528223 440.57967807 275.33989694 442.16391903 276 443.75 C276.37125 444.63171875 276.7425 445.5134375 277.125 446.421875 C278 449 278 449 278 453 C271.07 453 264.14 453 257 453 C260.19433198 443.41700405 260.19433198 443.41700405 264.93359375 441.0234375 C268.12849273 439.76892671 270.53793206 439 274 439 Z M198 432 C201.3 432 204.6 432 208 432 C207.67 433.98 207.34 435.96 207 438 C203.9168649 436.80100302 200.93720508 435.52299523 198 434 C198 433.34 198 432.68 198 432 Z" fill="var(--right-claw-bottom-front, #EFA647)"/>

<!-- #endregion -->

<!-- #region secondary -->

<!-- right claw secondary -->
<path d="M0 0 C7.26454034 -0.33020638 7.26454034 -0.33020638 10 2 C10.75 5.625 10.75 5.625 11 9 C8.29120665 10.35439668 5.99066732 10.06501451 3 10 C0 3.375 0 3.375 0 0 Z " fill="var(--right-claw-bottom-middle, #D84343)" transform="translate(285,440)"/>

<!-- #endregion -->

<!-- #endregion -->

<!-- #endregion -->

<!-- #region tail -->

<!-- #region primary tail -->

<!-- primary tail top -->
<path d="M0 0 C3 1 3 1 4.62573242 3.81982422 C5.21337248 5.05959588 5.78919819 6.30501063 6.35546875 7.5546875 C6.81521843 8.54071457 6.81521843 8.54071457 7.28425598 9.54666138 C7.93037911 10.93816046 8.57142288 12.33202763 9.20776367 13.72802734 C10.18291005 15.86494169 11.17498164 17.99333489 12.16992188 20.12109375 C12.79529049 21.4734873 13.41967274 22.82633748 14.04296875 24.1796875 C14.3397905 24.81727997 14.63661224 25.45487244 14.94242859 26.11178589 C16.22268931 28.93702621 17 30.85814947 17 34 C12.73128529 35.34018305 8.45969936 36.67097109 4.1875 38 C2.97255859 38.3815625 1.75761719 38.763125 0.50585938 39.15625 C-1.23920898 39.69765625 -1.23920898 39.69765625 -3.01953125 40.25 C-4.09307861 40.58515625 -5.16662598 40.9203125 -6.27270508 41.265625 C-9 42 -9 42 -12 42 C-12.27263672 40.60587891 -12.27263672 40.60587891 -12.55078125 39.18359375 C-14.0127275 31.36248406 -14.0127275 31.36248406 -16.75 23.9375 C-18 21 -18 21 -18.125 18.5 C-15.31990902 12.26646449 -8.78764003 7.84911335 -3.69921875 3.48046875 C-2.42270555 2.36828828 -1.19716986 1.19716986 0 0 Z " fill="var(--primary-tail-top, #D84343)" transform="translate(1118,342)"/>

<!-- primary tail middle -->
<path d="M0 0 C4.889959 10.00218887 5.36222958 20.3245948 5.3125 31.3125 C5.31056641 33.08620972 5.31056641 33.08620972 5.30859375 34.89575195 C5.21640561 43.27277344 4.49719451 50.95843912 2 59 C-5.80226735 60.24675406 -13.6181971 60.24255566 -21.5 60.25 C-22.24342651 60.25100708 -22.98685303 60.25201416 -23.75280762 60.25305176 C-39.97438284 60.2383716 -55.89286683 58.88444523 -72 57 C-73.25232422 56.86078125 -74.50464844 56.7215625 -75.79492188 56.578125 C-90.57555272 54.91616963 -105.10220239 52.55165597 -119.625 49.375 C-120.32302734 49.22293091 -121.02105469 49.07086182 -121.74023438 48.91418457 C-133.22107438 46.38946281 -133.22107438 46.38946281 -138 44 C-138 37.73 -138 31.46 -138 25 C-132.11946752 22.29262613 -126.30950118 19.96542344 -120.125 18.0625 C-118.8870166 17.67964844 -118.8870166 17.67964844 -117.62402344 17.2890625 C-115.08623255 16.51354602 -112.54456713 15.75296373 -110 15 C-109.26555664 14.7819873 -108.53111328 14.56397461 -107.77441406 14.33935547 C-72.60928162 4.0848629 -36.51794563 -0.2795838 0 0 Z " fill="var(--primary-tail-middle, #D84343)" transform="translate(1246,370)"/>

<!-- primary tail bottom -->
<path d="M0 0 C2.79964039 1.30124131 5.07404655 2.7368522 7.43359375 4.72265625 C8.07683594 5.25737549 8.72007813 5.79209473 9.3828125 6.34301758 C10.06085938 6.91044678 10.73890625 7.47787598 11.4375 8.0625 C18.3750047 13.79504446 25.49856477 19.02901467 33 24 C31.48708127 27.47971308 29.44236671 29.90991336 26.875 32.6875 C26.07964844 33.55503906 25.28429688 34.42257812 24.46484375 35.31640625 C23.65144531 36.20199219 22.83804687 37.08757812 22 38 C20.47563329 39.70518121 18.95452137 41.4132807 17.4375 43.125 C16.44556641 44.24261719 16.44556641 44.24261719 15.43359375 45.3828125 C14.96050781 45.91648437 14.48742188 46.45015625 14 47 C9.43913781 42.90099727 6.57439422 38.3756465 3.5625 33.0625 C3.08458008 32.22581787 2.60666016 31.38913574 2.11425781 30.52709961 C-8.19746025 12.18757253 -8.19746025 12.18757253 -7.86328125 6.79296875 C-6.7647646 4.51143418 -5.54546488 3.62975883 -3.4375 2.25 C-2.79683594 1.82203125 -2.15617187 1.3940625 -1.49609375 0.953125 C-1.00238281 0.63859375 -0.50867187 0.3240625 0 0 Z " fill="var(--primary-tail-bottom, #D84343)" transform="translate(1099,448)"/>

<!-- #endregion -->

<!-- #region secondary tail -->

<!-- secondary tail top -->
<path d="M0 0 C9.76322354 9.12649157 13.812481 22.41609798 17 35 C17.54333984 36.75183594 17.54333984 36.75183594 18.09765625 38.5390625 C18.96259668 41.85653963 19.2091844 44.52803195 19.125 47.9375 C19.10695313 48.89527344 19.08890625 49.85304688 19.0703125 50.83984375 C19.04710937 51.55269531 19.02390625 52.26554687 19 53 C7.86468859 58.63102739 -3.6103343 62.8609908 -15.375 66.984375 C-18.58495817 68.11320369 -21.74274757 69.274056 -24.85546875 70.6484375 C-27.98130344 71.99196396 -31.03478849 72.97052771 -34.3125 73.875 C-35.52035156 74.20886719 -36.72820312 74.54273438 -37.97265625 74.88671875 C-38.6186377 75.06380371 -39.26461914 75.24088867 -39.93017578 75.42333984 C-42.14550361 76.04053781 -44.35198185 76.68439321 -46.55859375 77.33203125 C-48.1223547 77.7839965 -49.68615629 78.23582119 -51.25 78.6875 C-51.96969971 78.90196777 -52.68939941 79.11643555 -53.4309082 79.33740234 C-58.92101108 80.90172273 -64.31217489 81.58412396 -70 82 C-72.45459796 77.09612612 -74.89348896 72.18487531 -77.31811523 67.26611328 C-78.14521389 65.59374154 -78.97657376 63.92347027 -79.81225586 62.25537109 C-81.01240152 59.85793216 -82.19704422 57.45336903 -83.37890625 55.046875 C-83.75592178 54.30193787 -84.13293732 53.55700073 -84.52137756 52.78948975 C-87.07874679 47.52775562 -87.07874679 47.52775562 -86.68096924 44.86187744 C-85.80278832 42.46079213 -84.7336502 41.67404095 -82.66796875 40.1875 C-81.60944702 39.41950073 -81.60944702 39.41950073 -80.52954102 38.63598633 C-79.75666748 38.09611084 -78.98379395 37.55623535 -78.1875 37 C-77.3843335 36.43112061 -76.58116699 35.86224121 -75.75366211 35.27612305 C-56.62057215 21.9175257 -35.95378911 10.02157679 -14 2 C-13.0925 1.649375 -12.185 1.29875 -11.25 0.9375 C-3.7515599 -1.82508319 -3.7515599 -1.82508319 0 0 Z " fill="var(--secondary-tail-top, #3967AD)" transform="translate(1215,290)"/>

<!-- secondary tail middle -->
<path d="M0 0 C5.70076583 0.52839568 11.18234035 1.39880778 16.75 2.75 C33.58635105 6.63253616 50.67737087 9.38565523 67.81665039 11.51831055 C80.28512296 13.06989026 92.10584402 14.92282984 104 19 C104.97839844 19.33193359 105.95679688 19.66386719 106.96484375 20.00585938 C118.89832353 24.09217215 130.73218823 28.28768986 142 34 C142.14174169 40.0181159 141.83039867 45.44640749 140.5 51.3125 C140.32984375 52.07014648 140.1596875 52.82779297 139.984375 53.60839844 C137.19173332 65.17993565 133.01303023 77.29446709 126 87 C118.35138453 86.66817286 112.04639026 84.92254863 105 82 C103.86304688 81.53851563 102.72609375 81.07703125 101.5546875 80.6015625 C82.37985355 72.6261 64.26929258 62.49002327 47 51 C46.11425293 50.4131543 45.22850586 49.82630859 44.31591797 49.22167969 C32.48116383 41.35118481 20.95228915 33.18412077 9.79199219 24.38232422 C8.12179395 23.09395059 6.42381493 21.8686297 4.6953125 20.66015625 C2.23690262 18.88615134 0.01602451 17.26237165 -2 15 C-2.1875 11.5 -2.1875 11.5 -1 8 C-0.78149549 6.52509456 -0.59385664 5.04528214 -0.4375 3.5625 C-0.293125 2.386875 -0.14875 1.21125 0 0 Z " fill="var(--secondary-tail-middle, #3967AD)" transform="translate(1107,425)"/>

<!-- secondary tail bottom -->
<path d="M0 0 C5.06118663 1.69716438 9.24707248 4.6126639 13.6875 7.5 C42.66406816 26.63431983 42.66406816 26.63431983 75 38 C73.87376984 51.28951584 66.9711726 64.26925443 58 74 C57.17048828 74.97839844 57.17048828 74.97839844 56.32421875 75.9765625 C54.60767894 77.76807761 53.25675087 78.96902118 51 80 C47.6189714 79.89836587 44.99607467 78.48240952 42 77 C40.98035156 76.55140625 39.96070313 76.1028125 38.91015625 75.640625 C17.06976352 65.53350168 -8.2291121 46.5516088 -21 26 C-20.91764724 23.37440034 -20.29853573 22.35419493 -18.6171875 20.359375 C-17.75480469 19.56273437 -17.75480469 19.56273437 -16.875 18.75 C-12.99305608 15.03476533 -9.49094626 11.08074084 -6 7 C-5.12214844 5.9790625 -5.12214844 5.9790625 -4.2265625 4.9375 C-2.81499916 3.29398963 -1.40709838 1.64733469 0 0 Z " fill="var(--secondary-tail-bottom, #3967AD)" transform="translate(1140,479)"/>

<!-- #endregion -->

<!-- #endregion -->

<!-- #region eyes -->

<!-- #region eye pupils -->

<!-- left eye pupil-->
<path d="M0 0 C7.07504608 6.02472996 11.31248769 11.77322624 12.2421875 21.1015625 C12.63434919 31.10671319 10.92705357 37.70886222 4.58203125 45.42578125 C-3.07954912 51.66195132 -9.18848164 54.37018525 -19.10546875 53.61328125 C-22.84216297 53.20856511 -25.88218566 52.59900364 -29.10546875 50.61328125 C-36.53132858 39.85682983 -36.55682222 24.93851297 -34.609375 12.42578125 C-33.15890998 7.18116199 -30.82876782 1.653008 -27.10546875 -2.38671875 C-19.35364312 -5.57758651 -6.86505342 -4.65983549 0 0 Z " fill="#2D1A1F" transform="translate(484.10546875,194.38671875)"/>

<!-- right eye pupil-->
<path d="M0 0 C-0.6290625 0.57105469 -1.258125 1.14210937 -1.90625 1.73046875 C-14.14432193 13.32346159 -21.89832844 26.82482481 -22.375 43.875 C-22.46581277 58.5576082 -15.86790695 73.26139537 -6 84 C-14.73211658 86.74693181 -26.07667207 85.94463751 -34.40625 82.39453125 C-46.12442021 76.09424998 -54.70981241 67.95528863 -58.91015625 55.24609375 C-62.53930115 42.29933031 -61.63726115 30.95647248 -55.9375 18.71875 C-49.52551603 7.49777805 -39.20808989 0.27097446 -26.9375 -3.375 C-18.00976054 -4.7921015 -7.78082929 -5.18721953 0 0 Z " fill="#2C181F" transform="translate(461,175)"/>

<!-- #endregion -->

<!-- #region eye whites -->

<!-- left eye -->
<path d="M518 180.9375 C521.32923746 183.37086993 524.26109912 185.90071743 527 189 C527.56589844 189.63550781 528.13179687 190.27101562 528.71484375 190.92578125 C536.77218471 200.51623148 539.86643014 211.63367894 539 224 C536.83429245 237.25003751 531.63520614 247.59043965 521 256 C509.46948623 263.36957441 497.32789663 267.03631492 483.69140625 264.34765625 C472.06551355 261.15704023 464.09536072 254.70590469 456 246 C456.495 245.01 456.495 245.01 457 244 C458.134375 244.495 459.26875 244.99 460.4375 245.5 C468.23772698 248.36510974 474.2249989 247.336957 481.73828125 244.0703125 C482.48464844 243.71710938 483.23101562 243.36390625 484 243 C484.71542969 242.70867187 485.43085938 242.41734375 486.16796875 242.1171875 C488.48218758 240.70595811 488.947418 239.46951931 490 237 C490.42539062 236.32324219 490.85078125 235.64648438 491.2890625 234.94921875 C496.1305773 226.75261914 496.34387154 218.2769652 494.37109375 209.0625 C491.8219156 201.56357236 486.87691021 197.46608194 480.359375 193.3203125 C475.84820881 191.54731928 471.91886729 191.67171625 467.125 191.8125 C466.24585938 191.82603516 465.36671875 191.83957031 464.4609375 191.85351562 C462.30702448 191.88863377 460.15342996 191.94243306 458 192 C462.81824429 182.82619051 473.20541013 177.47553498 482.8203125 174.421875 C494.95774616 172.07269429 507.59558637 174.29309724 518 180.9375 Z M456 244 C459.63 245.32 463.26 246.64 467 248 C467.33 249.98 467.66 251.96 468 254 C464 254 464 254 461.859375 252.3203125 C461.16328125 251.59585938 460.4671875 250.87140625 459.75 250.125 C459.04359375 249.40570313 458.3371875 248.68640625 457.609375 247.9453125 C456 246 456 246 456 244 Z M506 239 C506.33 239.99 506.66 240.98 507 242 C506.01 241.67 505.02 241.34 504 241 C504.66 240.34 505.32 239.68 506 239 Z M503 242 C503.33 242.99 503.66 243.98 504 245 C503.34 245 502.68 245 502 245 C501.67 245.99 501.34 246.98 501 248 C500.34 248 499.68 248 499 248 C499 248.66 499 249.32 499 250 C498.01 249.67 497.02 249.34 496 249 C498.31 246.69 500.62 244.38 503 242 Z M456 244 C458.97 244.99 461.94 245.98 465 247 C463.68 247.33 462.36 247.66 461 248 C460.67 248.66 460.34 249.32 460 250 C458.62437146 248.71034824 457.29233607 247.37310707 456 246 C456 245.34 456 244.68 456 244 Z" fill="var(--left-eye-color, #E362B6)"/>

<!-- right eye -->

<!-- right eye top -->
<path d="M458 173 C458.99 173.66 459.98 174.32 461 175 C460.37094 175.57105 459.74188 176.14211 459.09375 176.73047 C453.01268 182.491 448.75024 188.08974 444.59375 195.3125 C443 198 443 198 441 200 C440.38125 199.11313 439.7625 198.22625 439.125 197.3125 C435.07596 192.60353 430.1762 189.41454 423.87988 188.78955 C418.90894 188.57831 413.96618 188.74074 409 189 C420.76034 173.9432 439.31742 166.69463 458 173 Z M413 184 C413.66 184.66 414.32 185.32 415 186 C417.20251 186.46006 417.20251 186.46006 419.625 186.625 C420.44227 186.69977 421.25953 186.77453 422.10156 186.85156 C422.72805 186.90055 423.35453 186.94953 424 187 C424 187.33 424 187.66 424 188 C419.05 188.33 414.1 188.66 409 189 C410.32 187.35 411.64 185.7 413 184 Z M420 178 C420 181 420 181 418.6875 182.38672 C417.125 183.59115 415.5625 184.79557 414 186 C414.3488 182.74457 415.02133 181.98127 417.5625 179.75 C418.36688 179.1725 419.17125 178.595 420 178 Z" fill="var(--right-eye-color, #A571DD)"/>

<!-- right eye bottom -->
<path d="M0 0 C0.66 0 1.32 0 2 0 C2.43699219 1.14275391 2.43699219 1.14275391 2.8828125 2.30859375 C6.2565182 10.80651283 10.52235986 17.73969591 16 25 C7.2629332 27.74848904 -4.05128578 26.93173792 -12.39453125 23.41015625 C-18.47476835 20.11935326 -24.23469659 16.03178419 -29 11 C-28.67 10.34 -28.34 9.68 -28 9 C-26.96101563 9.06960937 -25.92203125 9.13921875 -24.8515625 9.2109375 C-15.83315107 9.62971902 -9.12657962 9.28545971 -2 3 C-1.34 2.01 -0.68 1.02 0 0 Z " fill="var(--right-eye-color, #A571DD)" transform="translate(439,234)"/>

<!-- #endregion -->

<!-- #endregion -->

</g>
</svg>