<svg xmlns="http://www.w3.org/2000/svg" width="220" height="120" viewBox="0 0 220 120" class="shrimp pinkShrimp">
  <g transform="translate(5, 5) matrix(0.129 0 0 0.129 0 4.1) rotate(-20, 110, 60)">



<!-- #region border -->

<!-- border -->
<path d="M218 307C219.077 317.512 227.424 327.843 233.654 336C246.136 352.342 260.966 366.592 277 379.4C284.821 385.647 294.873 390.538 301.736 397.746C306.896 403.165 307.812 416.747 310.345 424C315.807 439.642 326.253 452.837 332 468C312.156 468.854 282.748 478.085 269.105 493.004C248.406 515.638 241 558.504 241 588C241 608.036 244.687 626.561 252.579 645C255.203 651.133 258.865 661.782 266.999 661.782C273.513 661.782 274.594 656.164 275.166 651C276.539 638.598 278.625 626.209 281.211 614C286.579 588.645 294.515 551.555 317 535.51C324.081 530.457 334.655 529.618 343 528C337.623 533.778 330.618 537.99 326.598 545C320.854 555.017 318.83 567.802 316.739 579C311.592 606.573 310.578 638.249 320.748 665C325.913 678.584 331.827 691.635 341.095 702.999C344.881 707.642 350.24 713.081 356.891 710.257C362.525 707.865 361.293 698.901 360.715 694C359.002 679.485 358.569 662.546 360.285 648C362.911 625.748 363.584 593.263 382.04 577.329C389.95 570.5 403.216 566.777 413 563.345C419.528 561.055 426.954 556.793 434 556.704C442.986 556.589 450.015 565.805 459 567C445.877 598.505 432.914 627.431 444.251 662C448.029 673.522 457.267 697.924 473.985 687.258C482.754 681.663 479.499 668.857 481.499 660C485.759 641.14 492.869 624.109 503.671 608C506.864 603.237 511.363 594.391 517.015 592.328C523.533 589.949 534.301 597.011 541 598C536.501 631.407 533.037 665.013 552.44 695C559.032 705.188 576.308 725.765 589.606 713.235C598.758 704.613 590.269 687.305 588.464 677C584.677 655.383 594.949 635.658 598 615C604.726 616.835 625.135 618.469 628.972 624.314C633.469 631.164 629.931 648.654 631.131 657C634.675 681.638 645.122 709.315 665.996 724.455C675.005 730.99 701.207 747.565 706.566 728C709.808 716.165 697.406 700.042 693.435 689C687.162 671.555 688 652.218 688 634C699.469 634 710.468 636.996 722 637C727.3 637.002 736.081 635.339 740.816 638.028C751.04 643.835 759.86 659.716 769 667.833C774.628 672.832 786.196 677.648 790.248 683.545C792.448 686.744 784.763 693.898 783.345 697C777.827 709.071 775.931 721.818 776.001 735C776.033 741.07 778.099 748.566 785.985 746.677C793.403 744.901 791.936 735.733 792.004 730C792.124 719.923 795.652 699.816 806.09 694.878C809.998 693.029 818.224 698.08 822 699.604C835.298 704.971 854.539 705.512 859 721C842.412 723.957 831.711 738.457 827.746 754C826.333 759.541 823.237 771.203 831.094 773.236C834.932 774.229 838.934 772.403 840.822 768.945C847.146 757.36 845.105 745.406 859 737.916C861.657 736.484 865.552 734.753 868.471 736.408C873.997 739.541 878.268 749.151 882.428 754C889.682 762.457 900.552 768.271 907 777C891.802 777 877.719 780.353 866.44 791.274C862.182 795.396 855.856 806.328 863.228 810.821C872.332 816.368 883.046 798.48 891 795.06C896.447 792.718 918.008 789.604 921.821 795.318C924.129 798.776 923 805.048 923 809C923 819.748 923.541 830.308 924 841C910.606 838.514 897.791 839.831 886 846.866C880.285 850.276 874.151 855.437 876.573 862.867C878.12 867.615 884.029 868.427 888 866.424C900.44 860.149 913.375 848.188 927.686 859.843C931.062 862.593 931.957 869.136 933.781 873C944.45 895.606 928.801 926.959 922.735 950C920.948 956.784 921.017 973.538 916.258 978.397C913.577 981.134 907.463 980.001 904 980C892.031 979.995 879.787 978.084 868 976.079C823.204 968.461 777.724 948.018 732 948C716.97 947.994 690.121 948.006 687.147 968C686.283 973.813 688.456 978.588 690 984C663.088 988.031 641.871 1028.18 673 1043C670.7 1047.81 667.278 1052.7 666.329 1058C661.29 1086.17 685.452 1103.95 710 1110.53C757.66 1123.29 814.886 1116.82 862 1104.42C893.257 1096.19 926.216 1086.33 953 1067.56C959.89 1062.73 967.007 1057.32 972.572 1050.99C975.806 1047.3 978.546 1041.06 982.554 1038.32C988.456 1034.28 1000.9 1035.17 1008 1032.97C1024.14 1027.98 1039.56 1020.04 1053 1009.76C1082.19 987.439 1100.34 956.068 1112.46 922C1116.48 910.709 1117.55 897.976 1121.84 887C1124.59 879.948 1130.25 873.769 1133.74 867C1141.23 852.486 1146.88 836.968 1150.34 821C1156.97 790.386 1156 755.953 1146.65 726C1142.01 711.136 1133.29 697.628 1128.75 683C1125.56 672.696 1126.92 660.637 1124.25 650C1116.4 618.624 1102.62 588.819 1083.1 563C1072.53 549.014 1058.61 535.5 1045 524.46C1037.88 518.686 1028.61 514.23 1022.27 507.674C1016.28 501.467 1013.94 490.441 1008.97 483.13C997.861 466.773 985.103 451.363 970 438.428C949.712 421.054 925.584 406.863 901 396.428C887.866 390.854 871.196 388.019 859 381.062C848.964 375.336 840.404 364.319 831 357.238C815.177 345.325 796.981 335.542 779 327.309C699.982 291.128 612.446 279.642 527 269.286C477.83 263.326 426.461 260.702 377 264.089C332.864 267.112 290.129 273.784 246 264.721C239.637 263.415 233.66 257.039 229 252.83C214.615 239.837 201.56 223.052 200.09 203C198.759 184.833 208.472 170.169 222 158.921C248.262 137.083 280.462 133.006 313 128.576C355.906 122.736 404.756 133.221 446 144.36C521.563 164.766 594.649 194.466 669 219.001C700.177 229.289 734.976 240.515 768 241.961C776.438 242.33 786.689 243.314 794.995 241.772C798.555 241.111 801.907 238.091 800.377 234.147C799.042 230.703 795.008 231.114 792 230.961C784.373 230.575 776.495 229.465 769 227.999C736.552 221.654 704.68 213.152 673 203.834C577.032 175.609 487.128 128.494 387 115.714C351.766 111.217 312.954 108.004 278 116.235C248.73 123.127 216.798 134.531 197.518 159C172.083 191.28 184.96 249.785 222 269L214 285C203.11 280.147 193.236 269.603 184.87 261.271C156.97 233.486 131.115 191.829 145.1 151C155.5 120.639 186.184 98.1378 215 86.453C350.52 31.5 480.869 109.055 609 146.576C637.634 154.961 668.922 166.952 699 167C704.459 167.009 733.254 169.409 727.393 157.434C725.854 154.289 720.855 155.005 718 155C709.526 154.985 701.347 153.463 693 152.08C659.002 146.449 626.82 134.629 594 124.565C543.91 109.205 496.324 86.2599 446 71.7207C380.887 52.9089 315.869 44.4203 249 58.6396C223.29 64.1067 198.146 73.2661 176 87.6953C165.251 94.6989 155.757 103.09 147.615 113C105.754 163.949 130.051 231.054 172 273C183.727 284.726 201.49 302.752 218 307z" fill="var(--stroke, #000000)" />

<!-- #endregion -->


<!-- #region head (body part 1) -->

<!-- head (body pary 1) -->
<path fill="var(--head, #ff7a7c)" d="M386 280.424C350.074 285.142 309.992 290.919 274 284.615C264.791 283.002 238.378 275.813 231.603 284.344C224.275 293.573 237.013 311.551 242.001 319C254.5 337.666 271.461 353.788 289 367.714C297.521 374.48 312.54 380.674 318.157 390.039C323.958 399.712 324.613 415.168 329.065 426C338.142 448.084 352.893 468.613 369.09 486C434.619 556.347 537.664 584.319 628 605.654C655.352 612.114 683.899 617.809 712 619.039C721.754 619.466 732.24 621.422 742 619.775C756.417 617.343 772.257 600.104 782.13 590.271C820.659 551.9 838.874 499.958 844.169 447C845.463 434.061 845 421.011 845 408C845 403.01 846.339 395.643 843.987 391.093C841.66 386.593 835.737 382.497 832 379.173C803.747 354.044 765.429 338.341 730.039 326.537C655.68 301.736 576.974 289.25 499 283.911C462.382 281.403 422.68 275.608 386 280.424z"/>

<!-- head (body part 1) line (pattern) -->
<path fill="var(--head-pattern, #ffffff)" d="M541 302C540.452 305.099 539.565 308.651 542.434 310.911C545.883 313.627 551.856 313.211 556 314C568.199 316.323 580.715 317.253 593 319.246C654.081 329.155 712.617 343.474 769 369.64C784.147 376.669 798.177 385.369 812 394.707C815.916 397.352 823.613 404.266 828.682 400.968C836.828 395.67 821.492 386.108 818 383.576C800.949 371.216 782.15 360.699 763 352.106C695.422 321.78 615.169 302 541 302z"/>

<!-- head blush (pattern) -->
<path fill="var(--blush, #e87474)" d="M499 465.428C494.616 466.056 488.996 466.202 485 468.174C471.01 475.082 471.535 492.656 481.44 502.56C490.253 511.374 502.962 513.647 515 511.675C531.566 508.961 542.162 491.684 531.352 477.188C524.256 467.673 510.265 463.815 499 465.428z"/>


<!-- #region eyes -->

<!-- eye white -->
<path fill="var(--eye-color, #720202)" d="M432 334.443C424.987 335.622 418.209 338.969 412 342.269C352.158 374.08 388.872 468.008 454 456.671C516.972 445.71 522.236 350.716 459 335.654C450.529 333.637 440.634 332.992 432 334.443z"/>

<!-- eye pupil -->
<path fill="#ffffff" d="M457.019 355.028C438.68 364.564 460.548 399.406 478.981 389.821C497.543 380.169 475.827 345.248 457.019 355.028z"/>

<!-- #endregion -->

<!-- #endregion -->

<!-- #region body part 2 -->

<!-- body part 2 -->
<path fill="var(--bodypart-2, #ff7a7c)" d="M863 401C863 472.957 848.424 539.849 799.166 595C787.486 608.077 773.413 621.41 758 630C760.308 638.481 770.565 647.069 777 652.714C794.61 668.161 816.451 681.654 839 688.296C847.161 690.7 854.224 694.487 863 692.239C922.391 677.025 969.933 622.809 991.731 568C997.749 552.866 1008.17 528.55 1004.47 512C997.265 479.713 962.947 453.844 938 435.626C923.423 424.981 906.424 417.484 890 410.22C881.759 406.575 872.076 401.471 863 401z"/>

<!-- body part 2 white line (pattern) -->
<path fill="var(--bodypart-2-pattern, #ffffff)" d="M889.743 424.028C882.263 430.13 898.261 437.924 902 439.703C927.307 451.741 950.241 469.479 968.246 491C971.952 495.43 982.705 515.593 989.683 510.091C997.966 503.56 982.184 486.839 977.946 482C959.82 461.303 939.599 444.261 915 431.756C909.5 428.96 896.035 418.894 889.743 424.028z"/>

<!-- #endregion -->

<!-- #region body part 3 -->

<!-- body part 3 -->
<path fill="var(--bodypart-3, #ff7a7c)" d="M1021 529C1009.15 578.052 987.033 626.128 948 659.572C931.904 673.363 914.708 686.215 895.83 695.984C890.865 698.553 875.327 702.333 873.813 708.189C872.227 714.324 881.76 725.288 885.039 730C898.842 749.83 916.892 769.4 942 771.83C992.477 776.715 1047.99 756.326 1083.27 720.155C1092.59 710.602 1108.97 696.647 1111.72 683C1113.54 673.97 1109.39 663.717 1107.42 655C1101.67 629.443 1091.57 607.282 1077.68 585C1065.3 565.147 1043.47 537.632 1021 529z"/>

<!-- body part 3 white line (pattern) -->
<path fill="var(--bodypart-3-pattern, #ffffff)" d="M1031.32 558.029C1023.26 563.343 1042.07 579.046 1045.41 583C1063.88 604.876 1077.61 629.34 1085.36 657C1086.56 661.262 1089.74 680.313 1097.49 674.968C1104.58 670.077 1097.72 654.036 1096.13 648C1089.21 621.715 1074.52 596.895 1057.38 576C1053.21 570.907 1039.39 552.705 1031.32 558.029z"/>

<!-- #endregion -->

<!-- #region body part 4 -->

<!-- body part 4 -->
<path fill="var(--bodypart-4, #ff7a7c)" d="M1118 704C1078.25 764.151 1009.09 789 940 789C935.578 812.818 936.659 855.033 953.498 874.409C958.847 880.563 968.326 884.602 975.714 887.696C1005.78 900.283 1042.15 895.62 1073 888.5C1083.89 885.988 1099.55 881.865 1108.54 874.926C1114.78 870.112 1118.92 859.976 1122.16 853C1131.3 833.359 1137.99 811.843 1138 790C1138.01 767.158 1135.84 745.676 1128.34 724C1126.26 717.963 1124.62 706.092 1118 704z"/>

<!-- body part 4 white line (pattern)-->
<path fill="var(--bodypart-4-pattern, #ffffff)" d="M1114.15 733.047C1106.23 737.329 1113.67 755.343 1114 762C1114.49 771.909 1116.01 782.048 1114.82 792C1112.71 809.591 1106.21 825.35 1101.71 842.089C1100.47 846.678 1102.88 852.785 1108.74 850.381C1115.25 847.709 1117.47 835.864 1119.45 830C1126.67 808.549 1129.65 782.593 1126.71 760C1126.01 754.606 1124.51 727.442 1114.15 733.047z"/>

<!-- #endregion -->

<!-- #region body part 5 -->

<!-- body part 5 -->
<path fill="var(--bodypart-5, #ff7a7c)" d="M954 896C948.198 918.37 942.999 940.737 937.268 963C933.731 976.745 930.551 995.194 938.479 1007.99C950.703 1027.71 987.86 1022.51 1006 1016.23C1056.12 998.864 1093.25 948.646 1102 897C1081.08 900.249 1061.41 910.352 1039.96 912.871C1008.93 916.514 981.999 907.657 954 896z"/>

<!-- body part 5 white line (pattern)-->
<path fill="var(--bodypart-5-pattern, #ffffff)" d="M1084 915C1079.94 913.552 1076.74 912.439 1073.42 916.148C1068.39 921.766 1067.23 930.518 1063.59 936.985C1058.05 946.818 1049.96 956.037 1042 963.999C1037.54 968.455 1026.43 974.126 1030.01 981.852C1033.77 989.948 1048.54 976.278 1051.91 972.911C1065.84 959.01 1083.94 935.448 1084 915z"/>

<!-- #endregion -->

<!-- #region tail -->

<!-- tail -->
<path fill="var(--tail, #FE606F)" d="M961 1037C938.753 1036.03 918.983 1018.56 918 996C861.7 996 810.552 977.681 756 967.46C743.361 965.092 729.789 963.875 717 965.576C712.794 966.135 705.502 965.651 704.362 971.105C702.341 980.775 721.445 983.285 712.941 992.811C702.697 1004.29 671.586 995.671 675.133 1020.91C677.277 1036.16 702.501 1026.21 704.377 1040C705.563 1048.72 695.022 1048.2 690.004 1051.09C679.589 1057.1 679.869 1071.31 687.379 1079.42C702.247 1095.49 724.636 1096.99 745 1099.17C797.374 1104.77 850.845 1092.33 900 1075.45C918.648 1069.05 952.195 1055.88 961 1037z"/>

<!-- tail line (pattern) -->

<path fill="var(--tail-pattern, #d3d3d3)" d="M728.322 971.028C724.259 973.79 727.724 978.624 731.044 979.971C739.86 983.551 750.295 984.318 759.424 987.305C791.293 997.731 823.289 1009.38 857 1012.09C865.2 1012.74 882.75 1016.52 889.393 1009.99C892.149 1007.29 889.988 1003.34 886.891 1002.23C880.022 999.76 870.287 999.959 863 999.054C828.927 994.823 797.367 981.576 764 974.714C755.496 972.966 736.3 965.603 728.322 971.028z"/>

<!-- #endregion -->

<!-- #region paws -->

<!-- paw 1 -->
<path fill="var(--paw-1, #ff7a7c)" d="M262 623C264.61 618.643 264.338 612.926 265.424 608C267.644 597.933 270.56 587.828 273.622 578C279.719 558.429 289.25 533.815 307 521.85C322.071 511.692 347.284 508.764 365 507C361.959 500.48 350.595 486.304 343.715 483.618C339.058 481.8 330.673 484.274 326 485.411C311.993 488.817 292.741 491.854 282.728 503.261C274.906 512.173 270.341 524.936 266.667 536C257.436 563.795 252.357 594.525 262 623z"/>

<!-- paw 2 -->
<path fill="var(--paw-2, #ff7a7c)" d="M342 673L343 673C343 646.807 344.955 620.987 353.18 596C356.443 586.086 359.734 575.826 367.174 568.09C378.625 556.184 398.43 549.451 414 545C410.115 538.943 394.263 527.444 387 526.498C382.197 525.872 376.173 529.199 372 531.26C361.013 536.686 346.336 542.218 340.569 554C322.861 590.178 328.052 637.039 342 673z"/>

<!-- paw 3 -->
<path fill="var(--paw-3, #ff7a7c)" d="M463 665L464 665C467.762 646.764 472.312 628.531 481.312 612C486.27 602.895 496.101 593.742 499 584C492.163 583.399 479.303 573.864 473.214 577.071C468.297 579.661 466.194 590.202 464.091 595C453.9 618.253 454.507 641.584 463 665z"/>

<!-- paw 4 -->
<path fill="var(--paw-4, #ff7a7c)" d="M575 695L573.174 647L582 611C576.33 610.42 562.421 602.45 557.514 605.157C553.303 607.48 553.804 621.621 553.286 626C550.878 646.336 555.126 683.501 575 695z"/>

<!-- paw 5 (last) -->
<path fill="var(--paw-5, #ff7a7c)" d="M646 627C646 655.866 652.894 706.428 686 717C683.865 705.919 677.49 695.241 674.887 684C670.784 666.274 671.23 648.938 672 631L646 627z"/>

<!-- #endregion -->

  </g>
</svg>